<svg width="59" height="18" viewBox="0 0 59 18" fill="none" xmlns="http://www.w3.org/2000/svg">
<path d="M0.230114 17.5L3.12784 0.045454H15.2983L14.7188 3.47159H6.76705L6.1875 7.05114H13.517L12.9375 10.4858H5.60795L5.02841 14.0739H12.9801L12.4006 17.5H0.230114ZM20.4801 10.0341L19.2358 17.5H15.0682L17.9659 0.045454H21.9972L20.8892 6.8125H21.0341C21.4545 6.00568 22.0398 5.375 22.7898 4.92045C23.5398 4.46591 24.4091 4.23864 25.3977 4.23864C26.3068 4.23864 27.0682 4.44318 27.6818 4.85227C28.2955 5.25568 28.7301 5.8267 28.9858 6.56534C29.2415 7.30398 29.2869 8.16761 29.1222 9.15625L27.7244 17.5H23.5568L24.8182 9.97443C24.9318 9.24716 24.8381 8.67898 24.5369 8.26989C24.2358 7.8608 23.7528 7.65625 23.0881 7.65625C22.6506 7.65625 22.2472 7.75284 21.8778 7.94602C21.5142 8.13352 21.2102 8.40341 20.9659 8.75568C20.7216 9.10795 20.5597 9.53409 20.4801 10.0341ZM33.9567 17.7216C33.1271 17.7216 32.4112 17.5824 31.8089 17.304C31.2124 17.0199 30.7749 16.5909 30.4964 16.017C30.2237 15.4432 30.1584 14.7273 30.3004 13.8693C30.4254 13.142 30.6555 12.5312 30.9908 12.0369C31.3317 11.5369 31.7493 11.1307 32.2436 10.8182C32.7436 10.5057 33.3004 10.267 33.9141 10.1023C34.5277 9.9375 35.1697 9.8267 35.8402 9.76989C36.5902 9.7017 37.1982 9.62784 37.6641 9.5483C38.1357 9.46875 38.4879 9.35795 38.7209 9.21591C38.9538 9.06818 39.0959 8.86364 39.147 8.60227V8.55966C39.2152 8.12216 39.1214 7.78409 38.8658 7.54545C38.6101 7.30682 38.2266 7.1875 37.7152 7.1875C37.1697 7.1875 36.7038 7.30682 36.3175 7.54545C35.9311 7.78409 35.6612 8.11364 35.5078 8.53409L31.6896 8.39773C31.9283 7.60227 32.3374 6.89205 32.9169 6.26705C33.4964 5.63636 34.2322 5.14205 35.1243 4.78409C36.022 4.42045 37.0589 4.23864 38.2351 4.23864C39.0646 4.23864 39.8146 4.33807 40.4851 4.53693C41.1555 4.73011 41.7209 5.0142 42.1811 5.3892C42.647 5.75852 42.9794 6.21307 43.1783 6.75284C43.3771 7.29261 43.4197 7.90909 43.3061 8.60227L41.8146 17.5H37.8942L38.201 15.6761H38.0987C37.7919 16.1193 37.4311 16.4943 37.0163 16.8011C36.6072 17.108 36.147 17.3381 35.6357 17.4915C35.1243 17.6449 34.5646 17.7216 33.9567 17.7216ZM35.7124 14.9943C36.1499 14.9943 36.5646 14.9034 36.9567 14.7216C37.3487 14.5398 37.6783 14.2898 37.9453 13.9716C38.218 13.6477 38.3913 13.2727 38.4652 12.8466L38.6612 11.6023C38.5419 11.6648 38.3913 11.7216 38.2095 11.7727C38.0277 11.8239 37.8345 11.8722 37.63 11.9176C37.4254 11.9574 37.2152 11.9972 36.9993 12.0369C36.7891 12.071 36.5874 12.1023 36.3942 12.1307C35.9851 12.1932 35.63 12.2898 35.3288 12.4205C35.0277 12.5511 34.7862 12.7216 34.6044 12.9318C34.4283 13.1364 34.3203 13.3807 34.2805 13.6648C34.2124 14.0909 34.3118 14.4205 34.5788 14.6534C34.8459 14.8807 35.2237 14.9943 35.7124 14.9943ZM44.3629 17.5L47.2607 0.045454H51.4283L50.3459 6.65057H50.4311C50.6584 6.25284 50.9595 5.86932 51.3345 5.5C51.7152 5.13068 52.1726 4.82955 52.7067 4.59659C53.2408 4.35795 53.8516 4.23864 54.5391 4.23864C55.4482 4.23864 56.2578 4.47727 56.968 4.95454C57.6783 5.43182 58.1953 6.16761 58.5192 7.16193C58.843 8.15625 58.8771 9.4233 58.6214 10.9631C58.3771 12.446 57.9368 13.6875 57.3004 14.6875C56.6641 15.6875 55.9055 16.4375 55.0249 16.9375C54.1499 17.4375 53.2294 17.6875 52.2635 17.6875C51.6044 17.6875 51.0504 17.5795 50.6016 17.3636C50.1584 17.1477 49.8033 16.8636 49.5362 16.5114C49.2749 16.1591 49.093 15.7812 48.9908 15.3778H48.8288L48.4879 17.5H44.3629ZM49.5362 10.9545C49.4226 11.6591 49.4169 12.2727 49.5192 12.7955C49.6271 13.3182 49.8345 13.7244 50.1413 14.0142C50.4538 14.2983 50.8658 14.4403 51.3771 14.4403C51.8885 14.4403 52.3459 14.2983 52.7493 14.0142C53.1527 13.7244 53.4908 13.3182 53.7635 12.7955C54.0362 12.2727 54.2294 11.6591 54.343 10.9545C54.4567 10.25 54.4624 9.6392 54.3601 9.12216C54.2635 8.60511 54.0618 8.20455 53.755 7.92045C53.4482 7.63636 53.0362 7.49432 52.5192 7.49432C52.0078 7.49432 51.5476 7.63352 51.1385 7.91193C50.7351 8.19034 50.3942 8.58807 50.1158 9.10511C49.843 9.62216 49.6499 10.2386 49.5362 10.9545Z" fill="white"/>
</svg>
