<svg width="28" height="27" viewBox="0 0 28 27" fill="none" xmlns="http://www.w3.org/2000/svg">
<path d="M14.0063 2.43242C17.6109 2.43242 18.0379 2.44619 19.4614 2.51114C20.7776 2.57116 21.4924 2.79109 21.9681 2.97597C22.5983 3.22086 23.048 3.5134 23.5204 3.98578C23.9928 4.45821 24.2854 4.90793 24.5303 5.53807C24.7151 6.01377 24.9351 6.72858 24.9951 8.04482C25.06 9.46833 25.0738 9.89532 25.0738 13.4999C25.0738 17.1046 25.06 17.5316 24.9951 18.9551C24.9351 20.2713 24.7151 20.9861 24.5303 21.4618C24.2854 22.092 23.9928 22.5417 23.5204 23.0141C23.048 23.4865 22.5983 23.7791 21.9681 24.024C21.4924 24.2088 20.7776 24.4288 19.4614 24.4888C18.0381 24.5537 17.6111 24.5675 14.0063 24.5675C10.4013 24.5675 9.97443 24.5537 8.55107 24.4888C7.23483 24.4288 6.52002 24.2088 6.04431 24.024C5.41417 23.7791 4.96445 23.4865 4.49207 23.0141C4.01969 22.5417 3.7271 22.092 3.4822 21.4618C3.29732 20.9861 3.07739 20.2713 3.01738 18.9551C2.95243 17.5316 2.93865 17.1046 2.93865 13.4999C2.93865 9.89532 2.95243 9.46833 3.01738 8.04482C3.07739 6.72858 3.29732 6.01377 3.4822 5.53807C3.7271 4.90793 4.01964 4.45821 4.49207 3.98583C4.96445 3.5134 5.41417 3.22086 6.04431 2.97597C6.52002 2.79109 7.23483 2.57116 8.55107 2.51114C9.97459 2.44619 10.4016 2.43242 14.0063 2.43242ZM14.0063 0C10.3398 0 9.88011 0.0155406 8.4402 0.0812397C7.00328 0.146778 6.02191 0.37501 5.16321 0.708704C4.27547 1.0537 3.52261 1.51531 2.77205 2.26581C2.02154 3.01637 1.55993 3.76923 1.21499 4.65697C0.881237 5.51567 0.653004 6.49703 0.587466 7.93394C0.521766 9.37386 0.506226 9.83359 0.506226 13.4999C0.506226 17.1663 0.521766 17.6261 0.587466 19.066C0.653004 20.5029 0.881237 21.4842 1.21499 22.3429C1.55993 23.2307 2.02154 23.9835 2.77205 24.7341C3.52261 25.4846 4.27547 25.9462 5.16321 26.2912C6.02191 26.6249 7.00328 26.8531 8.4402 26.9187C9.88011 26.9844 10.3398 26.9999 14.0063 26.9999C17.6726 26.9999 18.1323 26.9844 19.5723 26.9187C21.0092 26.8531 21.9905 26.6249 22.8492 26.2912C23.737 25.9462 24.4899 25.4846 25.2404 24.7341C25.9909 23.9835 26.4525 23.2307 26.7975 22.3429C27.1312 21.4842 27.3595 20.5029 27.425 19.066C27.4907 17.6261 27.5062 17.1663 27.5062 13.4999C27.5062 9.83359 27.4907 9.37386 27.425 7.93394C27.3595 6.49703 27.1312 5.51567 26.7975 4.65697C26.4525 3.76923 25.9909 3.01637 25.2404 2.26581C24.4899 1.51531 23.737 1.0537 22.8492 0.708704C21.9905 0.37501 21.0092 0.146778 19.5723 0.0812397C18.1323 0.0155406 17.6726 0 14.0063 0Z" fill="#D9D9D9"/>
<path d="M14.0125 6.57373C10.1837 6.57373 7.08002 9.67745 7.08002 13.5061C7.08002 17.3348 10.1837 20.4385 14.0125 20.4385C17.8411 20.4385 20.9449 17.3348 20.9449 13.5061C20.9449 9.67745 17.8411 6.57373 14.0125 6.57373ZM14.0125 18.0061C11.5272 18.0061 9.51245 15.9914 9.51245 13.5061C9.51245 11.0209 11.5272 9.00615 14.0125 9.00615C16.4977 9.00615 18.5125 11.0209 18.5125 13.5061C18.5125 15.9914 16.4977 18.0061 14.0125 18.0061Z" fill="#D9D9D9"/>
<path d="M22.8384 6.29581C22.8384 7.19047 22.1131 7.91578 21.2184 7.91578C20.3237 7.91578 19.5984 7.19047 19.5984 6.29581C19.5984 5.4011 20.3237 4.67578 21.2184 4.67578C22.1131 4.67578 22.8384 5.4011 22.8384 6.29581Z" fill="#D9D9D9"/>
</svg>
